<svg width="90" height="68" viewBox="0 0 90 68" fill="none" xmlns="http://www.w3.org/2000/svg">
<g clip-path="url(#clip0)">
<path fill-rule="evenodd" clip-rule="evenodd" d="M10.4845 22.8498C12.6382 22.378 13.0928 20.7878 12.4448 20.0191C11.5357 18.9354 10.4845 22.2906 10.4845 22.8498ZM0.836365 33.369C2.65789 37.1597 5.17859 32.216 5.65133 30.573C1.76531 27.7061 0.224784 32.0923 0.836365 33.369ZM4.14552 21.4344C3.67278 20.806 4.2513 19.9152 4.63478 20.8406C5.01991 21.766 6.17531 23.3743 8.10261 22.9191C9.64314 18.5675 12.1638 18.6219 12.7606 19.389C15.1242 22.2361 10.939 23.4436 10.3093 23.531C10.2746 24.143 8.89106 28.7552 8.17369 30.8353C9.06627 31.8481 10.7126 34.6442 11.9209 34.6442C14.3193 34.5386 14.6168 29.6476 14.9143 28.9664C14.9143 28.6694 15.4581 28.6513 15.3689 29.3507C14.949 33.0721 13.4779 35.4673 12.2167 35.5547C9.30925 35.5547 8.17204 33.562 7.34888 32.3397C5.28273 36.4801 3.49592 36.3943 2.51574 36.0083C-2.79015 33.4746 1.21984 26.8005 5.98191 29.613C6.61168 27.7952 7.3307 26.1703 7.83815 23.7603C5.72241 23.8461 4.91578 22.7096 4.14552 21.4344Z" fill="white"/>
<path fill-rule="evenodd" clip-rule="evenodd" d="M19.921 30.0138C20.3409 27.8809 19.607 26.9737 19.2913 26.5019C18.8532 25.9246 17.7325 25.4874 17.6268 26.8516C17.6284 27.9172 18.8714 29.5239 19.921 30.0138ZM16.6829 27.5494C17.4879 29.3144 19.0284 30.677 19.7293 30.799C19.1689 32.2671 18.521 33.1925 17.873 33.2981C16.7524 33.0012 16.9276 29.5767 17.0681 28.8245C17.1375 28.615 16.6829 27.6896 16.6829 27.5494ZM20.4301 30.3272C20.85 30.606 22.7409 30.6242 23.3178 28.9647C23.3178 28.9647 23.3888 28.6843 23.7046 28.8773C23.9327 29.0175 23.7922 29.3326 23.7922 29.3326C22.8302 31.5149 20.4648 30.992 20.2367 30.9574C19.4665 33.788 18.154 34.1905 16.911 34.3472C15.3358 34.4528 14.8102 32.3562 14.7226 31.3764C14.5292 29.1231 15.3523 27.043 16.5094 27.2525C16.4036 26.012 17.2268 25.7134 17.5078 25.5748C18.278 25.1905 19.8004 25.5056 20.326 27.0083C20.64 28.0047 20.9359 28.8608 20.4301 30.3272Z" fill="white"/>
<path fill-rule="evenodd" clip-rule="evenodd" d="M25.6467 33.1068C27.0997 33.1068 27.7823 30.5912 27.6947 29.4365C27.7641 27.3399 28.1327 27.6368 28.465 27.7589C28.8699 27.8991 29.7443 28.6513 29.779 29.1231C29.708 30.451 29.2534 33.3855 30.0237 35.0978C30.6898 36.2162 32.4584 34.1361 33.2981 29.034C33.2981 29.034 33.632 28.9812 33.7014 29.0686C33.8056 29.1907 33.8237 29.4365 33.8237 29.4365C32.5097 36.7407 29.9708 36.1288 29.6733 36.076C27.7641 35.6916 27.8005 32.1104 27.7823 31.9702C26.6616 34.4 24.6484 34.3819 23.9657 33.6132C22.7062 32.0411 23.4748 27.4801 23.7029 26.431C24.0186 25.5567 24.8236 25.4693 25.5409 26.0796C25.7343 26.3765 25.9096 26.6388 25.9277 26.9539C25.2269 31.9702 25.5062 33.0358 25.6467 33.1068Z" fill="white"/>
<path fill-rule="evenodd" clip-rule="evenodd" d="M44.1198 29.4018C42.333 38.8373 39.7429 37.9284 39.2867 37.1944C37.9742 35.8665 37.8519 32.1434 37.9908 30.9211C37.9908 29.9429 39.0933 26.1159 38.1313 26.779C36.6783 28.0541 35.4866 31.6881 35.3114 32.0032C35.6271 33.1562 35.2932 33.3657 35.0304 33.4185C33.6816 33.628 33.5775 32.8065 33.437 32.3348C33.0518 30.6572 33.2799 28.5787 33.6634 26.9522C33.6634 26.6372 34.2072 26.4805 34.3808 26.6207C35.0453 27.005 35.6585 27.3201 35.5196 28.0888C35.3791 28.7519 35.2568 30.2019 35.2568 30.5169C36.0982 28.0706 37.1312 26.9357 37.6916 26.3765C38.4966 25.5732 40.2123 26.6207 40.4057 27.7572C40.5445 29.1033 40.2999 30.4658 40.161 31.4457C39.6007 34.7134 40.1429 36.005 40.2834 36.1453C40.6338 36.5296 41.7726 37.1944 43.6619 28.9647C43.6619 28.9647 43.9942 29.0158 44.0124 29.0521C44.1016 29.1923 44.1198 29.4018 44.1198 29.4018Z" fill="white"/>
<path fill-rule="evenodd" clip-rule="evenodd" d="M46.7975 35.1159C46.7975 35.1159 43.4884 38.2089 44.0834 41.1962C44.3992 42.0177 45.3612 42.2107 45.5893 41.9303C46.8141 40.6205 46.7099 35.657 46.7975 35.1159ZM47.1827 32.1451C47.5331 30.3619 47.3926 30.2052 47.5331 29.8043C47.6736 29.4018 47.9017 29.3837 48.2505 29.6641C48.829 30.1359 49.353 30.5384 49.1265 31.411C49.0918 31.9174 48.9877 32.6515 49.0224 32.9665C49.1612 32.9484 51.5613 32.0576 52.4357 28.9647C52.4357 28.9647 52.6638 28.9119 52.7861 28.9993C52.9431 29.1214 52.8572 29.4183 52.8572 29.4183C51.8059 33.1925 49.2835 33.3855 48.9348 33.8029C48.6356 35.1654 48.743 36.2855 48.1116 40.1108C47.4802 43.9378 44.4339 42.6792 44.1182 42.4334C41.9991 40.5281 44.0487 35.9341 46.9017 34.1163C46.9893 33.8012 47.0422 33.1892 47.0422 32.823C44.538 33.2074 43.6636 32.404 43.3132 31.3384C42.3661 27.9849 44.0818 26.0433 45.1678 25.2746C47.4967 23.7026 50.3001 25.5188 49.2835 27.8776C49.3017 28.0525 49.0025 28.1399 48.7761 27.8595C49.0389 25.7101 48.2158 25.5006 47.4455 25.4132C45.3612 25.4528 43.7148 32.564 47.1827 32.1451Z" fill="white"/>
<path fill-rule="evenodd" clip-rule="evenodd" d="M54.4307 30.0138C55.2886 29.9429 56.1448 29.7515 56.3564 28.0921C56.3035 27.0776 55.639 27.0611 55.3415 27.2706C54.8159 27.9172 54.606 28.5804 54.4307 30.0138ZM52.6621 33.247C51.7861 31.2197 51.9613 26.5201 55.201 26.5201C55.849 26.5547 57.0043 26.4854 57.1448 27.7952C57.1977 29.9808 55.201 30.7842 54.4836 30.6621C54.5531 33.44 55.5002 33.2486 55.92 33.5109C56.3415 33.6858 58.2655 33.4235 59.7019 28.968C59.7019 28.968 59.9813 28.9152 60.0342 29.0026C60.1201 29.1247 60.0854 29.387 60.0854 29.387C58.3184 36.0595 53.363 34.5749 52.6621 33.247Z" fill="white"/>
<path fill-rule="evenodd" clip-rule="evenodd" d="M22.0582 12.2926V18.3168C22.8434 18.2904 23.3425 18.1667 23.5591 17.944C23.7756 17.7229 23.8831 17.1769 23.8831 16.3076V14.3001C23.8831 13.378 23.7855 12.8188 23.5921 12.6241C23.3987 12.4295 22.8863 12.3189 22.0582 12.2926ZM22.0582 4.1536V8.94064C22.2962 8.93239 22.4814 8.92744 22.6136 8.92744C23.1607 8.92744 23.5078 8.79218 23.6583 8.52165C23.8087 8.25112 23.8831 7.47747 23.8831 6.20071C23.8831 5.52769 23.8219 5.05426 23.6979 4.78373C23.574 4.51321 23.4136 4.3433 23.2153 4.27237C23.0169 4.20309 22.6318 4.1635 22.0582 4.1536ZM16.4895 0.470123H22.045C23.7988 0.470123 25.1294 0.607037 26.0319 0.882514C26.936 1.15799 27.6649 1.7139 28.2203 2.55022C28.7757 3.3882 29.0534 4.7359 29.0534 6.59661C29.0534 7.85522 28.8567 8.73114 28.465 9.22766C28.0732 9.72418 27.298 10.1052 26.1442 10.3708C27.4319 10.6628 28.3046 11.1494 28.7625 11.8274C29.2203 12.5053 29.4501 13.5462 29.4501 14.9484V16.9443C29.4501 18.3992 29.2848 19.4764 28.9542 20.1775C28.6236 20.8785 28.0963 21.3569 27.374 21.6142C26.65 21.8716 25.169 22.0002 22.9293 22.0002H16.4895V0.470123Z" fill="#8ACAB5"/>
<path fill-rule="evenodd" clip-rule="evenodd" d="M38.123 14.3133C37.8404 11.8752 37.5594 8.85981 37.2751 5.27036C36.7081 9.39262 36.3511 12.408 36.2073 14.3133H38.123ZM41.0735 0.470123L44.257 22.0002H38.566L38.2668 18.1304H36.275L35.9412 22.0002H30.184L33.0254 0.470123H41.0735Z" fill="#8ACAB5"/>
<path fill-rule="evenodd" clip-rule="evenodd" d="M57.9796 8.39628H52.4109V6.44155C52.4109 5.20932 52.358 4.43733 52.2522 4.12721C52.1464 3.81709 51.8951 3.66203 51.4984 3.66203C51.1546 3.66203 50.9216 3.79565 50.7976 4.06123C50.6736 4.32681 50.6125 5.00973 50.6125 6.10999V16.4429C50.6125 17.4095 50.6736 18.0462 50.7976 18.3514C50.9216 18.6566 51.1679 18.81 51.5381 18.81C51.9431 18.81 52.2191 18.6368 52.3646 18.292C52.51 17.9456 52.5828 17.2726 52.5828 16.2713V13.7161H51.4588V10.4434H57.9796V22.0002H54.4803L53.9663 20.4579C53.5861 21.1227 53.1084 21.6225 52.5299 21.9541C51.9513 22.2873 51.2703 22.4522 50.4852 22.4522C49.5496 22.4522 48.6736 22.2246 47.8587 21.7677C47.0422 21.3107 46.4223 20.7466 45.9992 20.0719C45.576 19.3989 45.3116 18.6912 45.2058 17.9506C45.1 17.2099 45.0471 16.0997 45.0471 14.6184V8.22308C45.0471 6.16607 45.1578 4.67157 45.3777 3.74121C45.5975 2.81086 46.2306 1.95638 47.2752 1.18109C48.3199 0.405792 49.6703 0.0164948 51.3282 0.0164948C52.9596 0.0164948 54.3134 0.353006 55.3894 1.02768C56.4655 1.70235 57.1663 2.50239 57.4919 3.42779C57.8176 4.35485 57.9812 5.69924 57.9812 7.46428V8.39628H57.9796Z" fill="#8ACAB5"/>
<path fill-rule="evenodd" clip-rule="evenodd" d="M60.1366 0.470123H69.4211V4.77879H65.7037V8.86146H69.1814V12.9573H65.7037V17.6916H69.7914V22.0002H60.1366V0.470123Z" fill="#8ACAB5"/>
<path fill-rule="evenodd" clip-rule="evenodd" d="M76.9601 0.470123V17.6916H80.3453V22.0002H71.3914V0.470123H76.9601Z" fill="#8ACAB5"/>
<path fill-rule="evenodd" clip-rule="evenodd" d="M89.2231 27.1238C85.271 49.8927 65.345 67.2676 41.4206 67.2676C25.2682 67.2676 10.9407 59.3431 2.11573 47.1924L1.34216 47.3705C10.2845 59.8462 24.9112 68.0016 41.4206 68.0016C65.8161 68.0016 86.1156 50.2094 90.0017 26.9456L89.2231 27.1238Z" fill="white"/>
<path fill-rule="evenodd" clip-rule="evenodd" d="M86.9685 27.5065C82.9536 48.9426 64.0772 65.2221 41.452 65.2221C26.3013 65.2221 12.8267 57.9245 4.37195 46.6662L3.94385 46.7652C12.4663 58.2016 26.1062 65.6263 41.452 65.6263C64.3367 65.6263 83.4181 49.1158 87.3983 27.4075L86.9685 27.5065Z" fill="white"/>
</g>
<defs>
<clipPath id="clip0">
<rect width="90" height="68" fill="white"/>
</clipPath>
</defs>
</svg>
